<svg width="22" height="16" viewBox="0 0 22 16" fill="none" xmlns="http://www.w3.org/2000/svg">
<g clip-path="url(#clip0_4251_8848)">
<path d="M19.5556 0H2.44444C1.79614 0 1.17438 0.25934 0.715961 0.720968C0.257539 1.1826 0 1.8087 0 2.46154L0 13.5385C0 14.1913 0.257539 14.8174 0.715961 15.279C1.17438 15.7407 1.79614 16 2.44444 16H19.5556C20.2039 16 20.8256 15.7407 21.284 15.279C21.7425 14.8174 22 14.1913 22 13.5385V2.46154C22 1.8087 21.7425 1.1826 21.284 0.720968C20.8256 0.25934 20.2039 0 19.5556 0Z" fill="#E41E20"/>
<path fill-rule="evenodd" clip-rule="evenodd" d="M15.4825 9.97045C15.4361 9.96263 15.3935 9.93998 15.3609 9.90584C15.2625 9.81291 15.1574 9.80614 15.0419 9.87691C15.0025 9.90076 14.9667 9.93019 14.9356 9.9643C14.9269 9.97428 14.9162 9.98221 14.9041 9.98753C14.8921 9.99285 14.879 9.99543 14.8659 9.99507L14.3911 10.008C14.3788 10.0086 14.3636 10.016 14.355 9.99814C14.4259 9.92922 14.4998 9.86153 14.5701 9.79199C14.6056 9.7563 14.6386 9.74645 14.6899 9.75876C14.8457 9.79691 14.9624 9.74707 15.0248 9.62091C15.0409 9.58801 15.0642 9.55917 15.0928 9.53649C15.1215 9.51381 15.1548 9.49787 15.1904 9.48984C15.2228 9.48122 15.2558 9.47814 15.2949 9.47014C15.2008 9.37968 15.0999 9.3803 14.9942 9.42276C14.9624 9.43568 14.9362 9.44122 14.9026 9.42891C14.7553 9.3723 14.6874 9.4043 14.6306 9.55137C14.6196 9.57907 14.6092 9.60676 14.5811 9.6246C14.4344 9.72122 14.2884 9.81907 14.1423 9.91876C14.1312 9.92736 14.1181 9.93299 14.1042 9.93514C14.0903 9.93729 14.0761 9.93589 14.0629 9.93107C13.8643 9.87691 13.6644 9.82645 13.4652 9.77353C13.3336 9.73899 13.2022 9.7035 13.0711 9.66707C13.1487 9.58953 13.2183 9.52245 13.2868 9.45353C13.3424 9.39753 13.3265 9.33661 13.2507 9.31445C13.1884 9.2966 13.1254 9.28368 13.0619 9.26768C12.5657 9.14707 12.2516 8.83199 12.1 8.34584C12.0797 8.29351 12.0757 8.23622 12.0884 8.18153C12.1 8.14399 12.1208 8.11507 12.1611 8.1083C12.199 8.10214 12.2283 8.12368 12.2467 8.15384C12.2656 8.18461 12.2803 8.21845 12.2937 8.25168C12.3823 8.46522 12.4991 8.65537 12.6897 8.7926C12.7345 8.82609 12.7902 8.84106 12.8456 8.83445C12.8932 8.83014 12.947 8.8246 12.9647 8.77168C12.9818 8.71937 12.9415 8.6843 12.903 8.65845C12.7368 8.54214 12.6518 8.37537 12.6072 8.18214C12.5858 8.09291 12.628 8.0043 12.7062 7.98276C12.7777 7.96307 12.8517 8.01476 12.8792 8.10461C12.9128 8.21476 12.9421 8.32614 12.9818 8.43384C13.0759 8.69107 13.2495 8.87814 13.4988 8.99199C13.5437 9.01178 13.5936 9.01679 13.6415 9.00629C13.6893 8.99579 13.7327 8.97032 13.7653 8.93353C13.8136 8.87876 13.8136 8.81661 13.7647 8.76245C13.7339 8.73079 13.6965 8.70641 13.6553 8.69107C13.519 8.63199 13.3931 8.55568 13.3021 8.43384C13.2543 8.37008 13.2203 8.29694 13.2023 8.21914C13.1843 8.14134 13.1827 8.06061 13.1976 7.98214C13.211 7.89722 13.2599 7.87814 13.3344 7.91691C13.3683 7.9355 13.3983 7.96034 13.4231 7.99014C13.7225 8.32184 14.0201 8.65537 14.3391 8.96676C14.5035 9.1286 14.7082 9.19691 14.9374 9.15137C15.0786 9.12368 15.2081 9.06645 15.2851 8.93291C15.3181 8.87568 15.3371 8.81353 15.2955 8.75322C15.2539 8.69353 15.1898 8.6886 15.125 8.69537C14.978 8.71471 14.8286 8.70321 14.6862 8.66158C14.5438 8.61996 14.4115 8.54913 14.2976 8.45353C14.0696 8.26891 13.8997 8.0363 13.7482 7.78768C13.71 7.72916 13.6897 7.66074 13.6895 7.59076C13.6913 7.53045 13.7182 7.51568 13.7714 7.54399C13.8079 7.56473 13.8394 7.5933 13.8637 7.62768C14.0329 7.83999 14.2334 8.01476 14.4736 8.14214C14.663 8.24307 14.861 8.30584 15.0779 8.27876C15.2374 8.25907 15.3114 8.20614 15.3413 8.00676C15.3615 7.87137 15.2943 7.81661 15.1659 7.85599C14.8952 7.93907 14.6386 7.89968 14.3941 7.76184C14.1588 7.6283 13.9749 7.43568 13.8117 7.22399C13.7654 7.16135 13.7454 7.08288 13.7561 7.00553C13.7628 6.95445 13.794 6.9323 13.8453 6.93845C13.8887 6.94561 13.929 6.96576 13.9608 6.9963C14.1503 7.15014 14.3507 7.28614 14.5738 7.38461C14.729 7.45353 14.8873 7.50953 15.0608 7.48184C15.2228 7.45661 15.3432 7.31445 15.3316 7.16184C15.3261 7.07322 15.2735 7.01661 15.1867 7.00553C15.136 6.99999 15.0877 7.00861 15.0382 7.01414C14.7858 7.04245 14.5481 7.00491 14.3324 6.86153C14.1732 6.75184 14.0213 6.63179 13.8777 6.50214C13.8646 6.49094 13.8535 6.47763 13.8447 6.46276C13.8117 6.4123 13.8056 6.34522 13.8349 6.32368C13.8796 6.28984 13.9187 6.32184 13.9541 6.34461C14.1515 6.46953 14.3629 6.55814 14.5903 6.60984C14.7651 6.64984 14.9398 6.67322 15.1171 6.62768C15.1729 6.61658 15.224 6.5882 15.2631 6.54651C15.3022 6.50481 15.3274 6.45187 15.3352 6.39507C15.3603 6.25845 15.2692 6.1643 15.1329 6.18522C15.0896 6.19175 15.0476 6.20569 15.0089 6.22645C14.9331 6.26959 14.8495 6.29709 14.7631 6.30734C14.6766 6.31759 14.589 6.31039 14.5053 6.28614C14.3348 6.23701 14.1727 6.16166 14.025 6.06276C13.9486 6.01537 13.8686 5.97291 13.8056 5.90707C13.7549 5.85291 13.7494 5.78645 13.7854 5.73968C13.8203 5.69537 13.8704 5.69045 13.9413 5.72676C14.0281 5.77107 14.1148 5.81414 14.2071 5.84737C14.4253 5.92676 14.6471 5.97414 14.8806 5.93537C14.9959 5.91929 15.1032 5.86677 15.1869 5.78538C15.2707 5.70399 15.3267 5.59792 15.3468 5.48245C15.354 5.45033 15.3531 5.41693 15.3444 5.38522C15.3242 5.31137 15.2704 5.27876 15.1965 5.29599C15.1414 5.31218 15.091 5.34128 15.0492 5.38091C14.9469 5.47151 14.8233 5.53427 14.6902 5.56324C14.557 5.59221 14.4187 5.58643 14.2884 5.54645C14.1602 5.50856 14.0383 5.45174 13.9266 5.37784C13.8686 5.34214 13.8197 5.30461 13.7989 5.23814C13.7769 5.16614 13.8068 5.12491 13.882 5.12553C13.9101 5.12553 13.9382 5.12922 13.9669 5.13476C14.2639 5.19445 14.5616 5.21353 14.8561 5.12614C15.0914 5.05661 15.2711 4.92553 15.3371 4.67261C15.3597 4.58768 15.3322 4.49107 15.2704 4.44922C15.2136 4.40984 15.1421 4.41968 15.0651 4.47937C15.0291 4.50768 14.9961 4.5403 14.9612 4.56984C14.6679 4.81661 14.3183 4.8283 13.9627 4.81107C13.8704 4.80676 13.8087 4.71753 13.8178 4.63445C13.8264 4.55937 13.8857 4.51999 13.9847 4.51322C14.4277 4.48245 14.8115 4.30891 15.1415 4.01599C15.2564 3.91384 15.334 3.78214 15.3676 3.62953C15.3816 3.57316 15.3804 3.51408 15.3643 3.4583C15.3482 3.40252 15.3177 3.35204 15.2759 3.31199C15.2032 3.23814 15.1189 3.24553 15.0553 3.32676C15.0352 3.35261 15.0199 3.38153 15.0016 3.40861C14.8749 3.60733 14.7089 3.77764 14.5139 3.90893C14.319 4.04022 14.0993 4.12966 13.8686 4.17168C13.8166 4.18214 13.7909 4.16922 13.7622 4.12676C13.7115 4.04984 13.6651 4.03322 13.5997 4.05845C13.2354 4.20122 12.8816 4.36984 12.5382 4.55691C12.5009 4.57722 12.4874 4.60553 12.4887 4.64553C12.4926 4.70496 12.5053 4.76347 12.5266 4.81907C12.5663 4.94214 12.5571 5.06214 12.5131 5.1803C12.4557 5.33661 12.3224 5.4203 12.1501 5.4123C12.0114 5.40614 11.8879 5.29784 11.8488 5.14461C11.8063 4.99065 11.824 4.82611 11.8983 4.68491C12.0303 4.43876 12.2234 4.25476 12.4813 4.14707C12.6757 4.06522 12.8834 4.02953 13.0876 3.98214C13.1982 3.95753 13.3094 3.94091 13.4041 3.87076C13.4347 3.84799 13.4616 3.82276 13.4671 3.77476C13.3809 3.80061 13.3027 3.8283 13.2226 3.84861C13.1132 3.8763 13.024 3.83322 12.9427 3.75999C12.9714 3.75261 12.9989 3.75137 13.0264 3.75261C13.1939 3.76122 13.3613 3.76491 13.5276 3.72984C13.6657 3.70091 13.7952 3.66461 13.8783 3.53784C13.8972 3.51119 13.9076 3.47946 13.9083 3.44676C13.9077 3.36984 13.8563 3.33907 13.7897 3.37845C13.745 3.40844 13.706 3.44639 13.6748 3.49045C13.6118 3.5661 13.5256 3.61849 13.4298 3.63937C13.3208 3.66806 13.2079 3.67907 13.0955 3.67199C13.0638 3.67097 13.0327 3.66365 13.0038 3.65045C13.0711 3.57968 13.1383 3.52061 13.2226 3.48491C13.3186 3.44491 13.3772 3.45784 13.4499 3.53291C13.4579 3.54091 13.4628 3.55814 13.4799 3.55199C13.5049 3.41107 13.4383 3.3163 13.2984 3.29168C13.2186 3.28163 13.1378 3.28266 13.0582 3.29476C13.0442 3.29599 13.024 3.31076 13.0167 3.28368C12.9934 3.20922 12.9274 3.18645 12.8651 3.16553C12.6868 3.10775 12.4936 3.11738 12.3218 3.19261C12.1662 3.25598 12.0044 3.3028 11.8391 3.3323C11.7407 3.35014 11.6417 3.36122 11.5372 3.37661C11.6276 3.46461 11.7339 3.52245 11.8354 3.60061C11.66 3.67189 11.5067 3.78892 11.3911 3.93968L11.3948 3.95937H11.6722L11.671 3.97537C11.5848 4.00676 11.4981 4.03507 11.4137 4.06953C11.3252 4.10474 11.2462 4.16063 11.1833 4.23261C11.231 4.2443 11.2732 4.25353 11.3153 4.26461C11.3489 4.27322 11.3557 4.2923 11.3288 4.3163C11.2078 4.42276 11.1069 4.54953 10.9969 4.66645C10.9688 4.69599 10.9548 4.68307 10.9334 4.66091C10.8252 4.54768 10.7274 4.42337 10.6089 4.31937C10.5747 4.28922 10.5893 4.27076 10.626 4.26153C10.6657 4.25107 10.7054 4.24245 10.7513 4.23199C10.6181 4.07999 10.4353 4.0363 10.2612 3.97537L10.2654 3.95568H10.5557C10.4382 3.79804 10.2808 3.67517 10.0998 3.59999C10.2013 3.52122 10.3094 3.46461 10.3987 3.3723C10.125 3.35088 9.85605 3.28866 9.60055 3.18768C9.42281 3.11103 9.22259 3.10618 9.04139 3.17414C8.99311 3.19261 8.943 3.21353 8.92405 3.26707C8.91367 3.29599 8.90144 3.29784 8.87394 3.29414C8.77983 3.28122 8.6845 3.27199 8.59039 3.30214C8.47672 3.33845 8.42478 3.43876 8.45778 3.55753C8.49933 3.5163 8.536 3.47014 8.59772 3.46338C8.69611 3.45168 8.87822 3.56061 8.92039 3.65537C8.84416 3.67493 8.7649 3.67953 8.68694 3.66891C8.50544 3.65414 8.33678 3.60799 8.2225 3.44799C8.20788 3.42804 8.19037 3.41041 8.17055 3.39568C8.13633 3.36922 8.09905 3.34091 8.05689 3.37168C8.01594 3.40184 8.02083 3.44984 8.03367 3.49353C8.04652 3.52792 8.06676 3.55902 8.09294 3.58461C8.162 3.65968 8.25122 3.69414 8.34778 3.71691C8.53355 3.76061 8.72178 3.76491 8.91122 3.75261C8.9375 3.75076 8.96683 3.74522 8.99678 3.76307C8.94955 3.80795 8.89047 3.83815 8.82663 3.85005C8.76278 3.86194 8.69688 3.85503 8.63683 3.83014C8.58244 3.80984 8.52867 3.78645 8.46817 3.77599C8.47183 3.82276 8.49872 3.84676 8.52805 3.86891C8.59237 3.91393 8.66551 3.94457 8.74255 3.95876C8.8935 3.99384 9.04322 4.02953 9.19417 4.06214C9.50033 4.12922 9.7515 4.28368 9.944 4.53476C10.0705 4.69968 10.1279 4.88184 10.0968 5.08984C10.0711 5.26461 9.94522 5.40491 9.79244 5.40922C9.58955 5.41476 9.46428 5.3323 9.40989 5.14891C9.37354 5.04064 9.3729 4.92343 9.40805 4.81476C9.43025 4.75735 9.44285 4.69663 9.44533 4.63507C9.44472 4.60122 9.43372 4.57599 9.40317 4.55937C9.05498 4.3677 8.69514 4.19834 8.32578 4.0523C8.30806 4.04479 8.28858 4.04254 8.26963 4.04581C8.25068 4.04908 8.23306 4.05774 8.21883 4.07076C8.19312 4.0906 8.17169 4.11552 8.15589 4.14399C8.14061 4.17291 8.12228 4.17784 8.0905 4.1723C7.84601 4.131 7.61329 4.03691 7.40833 3.89648C7.20336 3.75605 7.03101 3.57261 6.90311 3.35876C6.82244 3.22461 6.7045 3.22276 6.61833 3.35384C6.58755 3.39817 6.56749 3.44914 6.55974 3.50267C6.552 3.5562 6.55678 3.61081 6.57372 3.66214C6.64828 3.89661 6.80655 4.06091 7.00944 4.18522C7.3095 4.36861 7.62544 4.50645 7.98539 4.51137C8.01153 4.51132 8.03707 4.5193 8.05858 4.53426C8.0801 4.54921 8.09656 4.57043 8.10578 4.59507C8.1165 4.619 8.12002 4.64557 8.11589 4.6715C8.11177 4.69742 8.10017 4.72156 8.08255 4.74091C8.06551 4.76294 8.04374 4.78081 8.01887 4.79317C7.994 4.80553 7.96668 4.81207 7.93894 4.8123C7.84728 4.81291 7.75561 4.81353 7.66394 4.80984C7.37672 4.79753 7.11639 4.71507 6.90555 4.50645C6.87455 4.47464 6.8373 4.44969 6.79617 4.43322C6.71733 4.4043 6.64767 4.43261 6.60978 4.5083C6.58642 4.55537 6.58078 4.60936 6.59389 4.6603C6.62679 4.8065 6.71547 4.93382 6.84078 5.01476C6.98317 5.10768 7.14267 5.15076 7.30889 5.16922C7.53351 5.19156 7.76023 5.17764 7.9805 5.12799C8.03244 5.11753 8.09355 5.09845 8.13205 5.15753C8.15589 5.19384 8.12717 5.27691 8.08011 5.3243C8.07461 5.32984 8.06911 5.33537 8.06239 5.33907C7.97378 5.39076 7.88883 5.45107 7.7935 5.49045C7.458 5.63014 7.14572 5.60614 6.864 5.35937C6.82717 5.32557 6.78236 5.30185 6.73383 5.29045C6.66294 5.27445 6.60978 5.30645 6.58961 5.37722C6.58037 5.41073 6.57932 5.44599 6.58655 5.47999C6.63483 5.74584 6.85789 5.92922 7.14633 5.94214C7.35411 5.95199 7.55211 5.90768 7.74522 5.83507C7.83811 5.79999 7.92611 5.75445 8.01472 5.70953C8.0575 5.68799 8.10028 5.68799 8.13694 5.72307C8.17422 5.75937 8.17728 5.80368 8.15894 5.85045C8.14456 5.88661 8.11935 5.91736 8.08683 5.93845C7.93658 6.04747 7.77588 6.14106 7.60711 6.21784C7.36817 6.32184 7.13044 6.34953 6.89455 6.20676C6.85698 6.18702 6.81532 6.17648 6.77294 6.17599C6.65622 6.16799 6.57555 6.25907 6.5945 6.38091C6.60113 6.43883 6.62563 6.49319 6.66455 6.53635C6.70346 6.57951 6.75484 6.6093 6.81144 6.62153C6.91594 6.64984 7.02289 6.65168 7.12983 6.63999C7.43412 6.60531 7.72642 6.50066 7.98417 6.33414C7.99578 6.32676 8.00678 6.31937 8.019 6.31445C8.04467 6.30461 8.07033 6.29537 8.09478 6.31568C8.11861 6.33537 8.11739 6.36368 8.1125 6.39076C8.10404 6.43643 8.07952 6.4775 8.04344 6.50645C7.93528 6.60122 7.82405 6.6923 7.711 6.77968C7.48733 6.95261 7.238 7.04122 6.95322 7.01414C6.90189 7.00922 6.85055 7.00307 6.79922 6.99938C6.666 6.98768 6.58778 7.06584 6.59939 7.19999C6.611 7.33476 6.72528 7.45168 6.86705 7.4763C6.97339 7.49537 7.07667 7.47691 7.1775 7.44614C7.4745 7.35445 7.72689 7.18276 7.96767 6.99199C7.99482 6.96753 8.02663 6.9489 8.06117 6.93722C8.13083 6.91691 8.17544 6.94645 8.17667 7.0203C8.18082 7.0941 8.15872 7.16697 8.11433 7.22584C7.986 7.39138 7.84239 7.54337 7.67311 7.66768C7.46839 7.81845 7.2435 7.90584 6.98561 7.89168C6.89883 7.88676 6.81633 7.8646 6.73322 7.84245C6.66233 7.82337 6.60917 7.85107 6.59144 7.91199C6.55172 8.04737 6.65255 8.2283 6.78822 8.26091C6.96361 8.30461 7.13411 8.27322 7.29789 8.20861C7.60772 8.08799 7.85644 7.88184 8.06483 7.62461C8.09028 7.58833 8.12349 7.55826 8.162 7.53661C8.21211 7.51014 8.239 7.52614 8.23961 7.58276C8.23929 7.65832 8.21698 7.73214 8.17544 7.79507C8.04794 8.00974 7.89234 8.20617 7.71283 8.37907C7.47755 8.59753 7.20378 8.71322 6.8805 8.69784C6.83833 8.69599 6.79678 8.68737 6.75522 8.68984C6.64094 8.69476 6.58717 8.77537 6.62383 8.88307C6.64217 8.93907 6.67333 8.98645 6.721 9.02276C7.02044 9.25414 7.3755 9.17168 7.5845 8.96799C7.90594 8.65537 8.20417 8.31999 8.50483 7.98768C8.53039 7.95655 8.56148 7.93046 8.5965 7.91076C8.66922 7.87445 8.71628 7.89414 8.73094 7.97414C8.75354 8.09203 8.73879 8.21408 8.68878 8.32307C8.60567 8.50584 8.45044 8.60737 8.27567 8.68491C8.23809 8.6993 8.20348 8.72058 8.17361 8.74768C8.11189 8.80799 8.11067 8.8806 8.17361 8.93845C8.24939 9.00737 8.33739 9.03199 8.43333 8.98707C8.55225 8.93372 8.65913 8.85656 8.74749 8.76028C8.83584 8.66401 8.90382 8.55064 8.94728 8.42707C8.987 8.31691 9.01633 8.20368 9.05117 8.09168C9.07683 8.01045 9.15139 7.95999 9.21922 7.97784C9.29133 7.99507 9.34267 8.07814 9.32494 8.15814C9.28339 8.34891 9.21005 8.52122 9.04322 8.63814C9.01733 8.65426 8.99505 8.67564 8.97783 8.70091C8.94483 8.74953 8.95339 8.79137 9.00778 8.81291C9.08172 8.84245 9.15628 8.84368 9.22655 8.79568C9.42517 8.65907 9.54433 8.46399 9.63478 8.24491C9.64883 8.21168 9.6635 8.17784 9.68244 8.14768C9.70139 8.11691 9.73133 8.09722 9.76922 8.10461C9.80711 8.11199 9.82789 8.13968 9.83828 8.17414C9.85188 8.22883 9.84846 8.2864 9.8285 8.33907C9.67572 8.83014 9.35917 9.14584 8.85683 9.26522C8.79541 9.27909 8.73428 9.29428 8.6735 9.31076C8.60139 9.3323 8.58672 9.39322 8.63867 9.44676C8.69611 9.50645 8.75478 9.56368 8.81222 9.62337C8.82383 9.63445 8.84094 9.64184 8.83972 9.66461C8.82402 9.67073 8.80788 9.67567 8.79144 9.67937C8.48344 9.76122 8.17544 9.84184 7.86805 9.92491C7.85383 9.92974 7.83864 9.93097 7.82383 9.9285C7.80902 9.92604 7.79504 9.91994 7.78311 9.91076C7.65844 9.82584 7.53378 9.7403 7.40667 9.65907C7.34897 9.62607 7.30478 9.57351 7.282 9.51076C7.24594 9.41168 7.18178 9.37414 7.084 9.40676C7.01415 9.42758 6.93945 9.42477 6.87133 9.39876C6.78455 9.37168 6.70389 9.39384 6.63361 9.46584C6.64767 9.46891 6.65439 9.47076 6.66172 9.47137C6.77233 9.48122 6.86155 9.52245 6.91289 9.63261C6.94955 9.71014 7.018 9.75199 7.10417 9.7606C7.15534 9.76751 7.20739 9.76353 7.25694 9.74891C7.28933 9.73845 7.31317 9.74399 7.33822 9.76861C7.41339 9.84245 7.49161 9.91322 7.568 9.98584C7.57044 9.9883 7.56983 9.99568 7.56922 9.99014C7.41828 9.99014 7.26733 9.9883 7.117 9.99076C7.08812 9.99238 7.05923 9.98779 7.03225 9.97728C7.00528 9.96678 6.98083 9.9506 6.96055 9.92984C6.82061 9.79814 6.67394 9.77599 6.53155 9.93353C6.51383 9.95261 6.49305 9.95507 6.47044 9.95814C6.43108 9.96185 6.39371 9.97729 6.36312 10.0025C6.33253 10.0277 6.31011 10.0616 6.29872 10.0997C6.41361 10.0221 6.50894 10.0732 6.60428 10.1329C6.61039 10.1378 6.61772 10.1397 6.62505 10.1428C6.74605 10.1926 6.86278 10.1957 6.97033 10.1083C6.98225 10.0987 6.99732 10.0941 7.0125 10.0954C7.19644 10.1077 7.381 10.1181 7.57655 10.1317C7.535 10.1748 7.48917 10.1895 7.4525 10.2166C7.4177 10.245 7.37691 10.2649 7.33327 10.2749C7.28963 10.285 7.24429 10.2848 7.20072 10.2745C7.0675 10.2455 6.94039 10.2849 6.87011 10.4141C6.79922 10.5465 6.75033 10.6874 6.75583 10.8418C6.75644 10.8523 6.75217 10.8646 6.76439 10.8745C6.78089 10.8418 6.79494 10.8086 6.81328 10.7778C6.85911 10.6997 6.91411 10.6375 7.01922 10.6751C7.03817 10.6825 7.06017 10.6806 7.08155 10.6806C7.20683 10.6794 7.28628 10.6221 7.31072 10.5058C7.31416 10.4834 7.32342 10.4622 7.33759 10.4445C7.35175 10.4267 7.37031 10.4131 7.39139 10.4049C7.42255 10.3901 7.4525 10.3729 7.48367 10.3588C7.58144 10.3157 7.68411 10.2837 7.77211 10.2191C7.79105 10.2055 7.80755 10.2123 7.82589 10.2185L8.14 10.3255C8.15833 10.3311 8.173 10.3385 8.18339 10.3581C8.27139 10.5249 8.34411 10.5606 8.52989 10.536C8.59448 10.5247 8.66095 10.5349 8.71933 10.5649C8.77189 10.5932 8.76822 10.6498 8.77983 10.7021C8.81021 10.6648 8.82485 10.617 8.82062 10.5689C8.81639 10.5208 8.79364 10.4763 8.75722 10.4449C8.71894 10.4083 8.68565 10.3667 8.65822 10.3212C8.60628 10.2314 8.51644 10.1981 8.42172 10.2357C8.36489 10.2591 8.31967 10.2498 8.26955 10.2258C8.19317 10.1889 8.12044 10.1428 8.02633 10.1126C8.08867 10.0929 8.13694 10.0763 8.18644 10.0634C8.45839 9.98891 8.73705 9.94091 9.00655 9.85414C9.03467 9.84553 9.05239 9.85599 9.07255 9.87384C9.14528 9.93845 9.21739 10.0043 9.29194 10.0677C9.35733 10.1212 9.40683 10.1126 9.45267 10.0425C9.47894 10.0025 9.50461 9.96061 9.53028 9.92061C9.63355 9.75322 9.71911 9.57414 9.82972 9.40984C9.93667 9.2523 10.0552 9.10214 10.2135 8.99445C10.3583 8.89722 10.4928 8.95568 10.5282 9.12553C10.5588 9.27445 10.5246 9.41537 10.4647 9.55137C10.318 9.88737 10.0797 10.1372 9.76617 10.3194C9.66355 10.3847 9.54034 10.4088 9.42089 10.3871C9.34213 10.3689 9.2597 10.3757 9.185 10.4068C9.10617 10.4425 9.09028 10.5009 9.13855 10.5735C9.18297 10.6341 9.2462 10.6781 9.31822 10.6985C9.51928 10.7661 9.70444 10.7606 9.86089 10.5938C9.89878 10.5532 9.94155 10.5181 9.98433 10.4818C9.99966 10.4683 10.0189 10.46 10.0392 10.4581C10.0595 10.4562 10.0799 10.4609 10.0974 10.4714C10.1359 10.4935 10.1518 10.5286 10.1481 10.5729C10.1456 10.6018 10.1338 10.629 10.1145 10.6505C10.0528 10.7243 9.98861 10.7951 9.9165 10.8585C9.7845 10.9741 9.63539 11.0492 9.45633 11.0517C9.41404 11.0526 9.37273 11.0647 9.33655 11.0868C9.27605 11.12 9.26628 11.1717 9.30967 11.2246C9.33614 11.2551 9.36916 11.2791 9.40622 11.2948C9.58528 11.3772 9.75211 11.3391 9.91283 11.2425C10.0137 11.1815 10.0956 11.0978 10.1774 11.0148C10.2104 10.9803 10.2483 10.9237 10.3003 10.9563C10.351 10.9877 10.3376 11.0535 10.3217 11.1046C10.2934 11.2086 10.2466 11.3066 10.1836 11.3938C10.1207 11.4797 10.0298 11.5407 9.92689 11.5661C9.87494 11.5791 9.82117 11.5791 9.76739 11.5821C9.67817 11.5883 9.64455 11.6529 9.68794 11.7311C9.71138 11.7704 9.74289 11.8043 9.78036 11.8304C9.81783 11.8565 9.86041 11.8742 9.90524 11.8825C9.95007 11.8907 9.99612 11.8892 10.0403 11.878C10.0845 11.8669 10.1259 11.8464 10.1616 11.8178C10.3027 11.7095 10.384 11.5575 10.4586 11.4006C10.4799 11.3563 10.4989 11.3003 10.5594 11.3058C10.6211 11.3114 10.6358 11.3686 10.6511 11.4178C10.6603 11.4473 10.6644 11.4781 10.6633 11.5089C10.6599 11.6366 10.6193 11.7605 10.5466 11.8652C10.4794 11.9615 10.3998 12.0484 10.3101 12.1237C10.285 12.1446 10.2813 12.1606 10.2997 12.1895C10.5142 12.5138 10.7274 12.84 10.9395 13.1655C10.9578 13.1938 10.9676 13.1889 10.9823 13.1643C11.022 13.1003 11.0617 13.0375 11.1033 12.9748C11.2738 12.7151 11.4437 12.4554 11.616 12.1963C11.6392 12.1618 11.6374 12.1434 11.605 12.1169C11.5446 12.0662 11.4888 12.0101 11.4382 11.9495C11.3276 11.8191 11.2567 11.6714 11.2579 11.4954C11.2579 11.4375 11.2713 11.3834 11.3062 11.3378C11.3404 11.2923 11.3832 11.2911 11.4217 11.3329C11.4412 11.3551 11.4528 11.3815 11.4651 11.4074C11.5396 11.5643 11.6215 11.7163 11.7645 11.8221C11.7995 11.8482 11.8394 11.8668 11.8818 11.877C11.9241 11.8872 11.9681 11.8886 12.011 11.8814C12.054 11.8741 12.095 11.8581 12.1317 11.8345C12.1684 11.8109 12.2 11.7801 12.2247 11.744C12.2803 11.6572 12.2448 11.5797 12.144 11.5809C11.8898 11.5846 11.7358 11.4498 11.6435 11.2252C11.6166 11.1606 11.583 11.096 11.5903 11.0215C11.5928 10.9951 11.594 10.9655 11.6209 10.9514C11.6508 10.9354 11.6777 10.9526 11.6979 10.9717C11.7443 11.0148 11.7877 11.0609 11.8342 11.104C11.9527 11.2172 12.0823 11.3083 12.2491 11.3329C12.3086 11.3434 12.3696 11.3411 12.428 11.326C12.4865 11.3109 12.5411 11.2835 12.5883 11.2455C12.6653 11.1828 12.6531 11.1101 12.5626 11.0738C12.5307 11.0606 12.4968 11.0527 12.4624 11.0505C12.1574 11.04 11.9686 10.8461 11.7938 10.6289C11.7764 10.6077 11.768 10.5804 11.7704 10.553C11.7728 10.5256 11.7858 10.5003 11.8067 10.4825C11.8482 10.4455 11.9014 10.4498 11.9509 10.4941C12.0083 10.5446 12.0646 10.5969 12.1232 10.6455C12.1714 10.6896 12.2309 10.719 12.2949 10.7305C12.4239 10.7489 12.5449 10.7237 12.6634 10.6726C12.7087 10.6522 12.7479 10.6201 12.7771 10.5797C12.8352 10.5021 12.8168 10.44 12.7288 10.4025C12.6533 10.3736 12.571 10.368 12.4923 10.3865C12.3805 10.4095 12.2642 10.3874 12.1684 10.3249C12.0939 10.2757 12.0157 10.2301 11.9448 10.1754C11.6961 9.98991 11.5111 9.73089 11.4156 9.43445C11.3783 9.31999 11.3624 9.2006 11.4039 9.08368C11.4486 8.95691 11.5561 8.91445 11.6753 8.97353C11.7166 8.99361 11.7544 9.02043 11.7871 9.05291C11.9026 9.16553 12.012 9.28307 12.0994 9.41968C12.2277 9.61968 12.3304 9.83507 12.463 10.0332C12.518 10.1157 12.5651 10.1218 12.6402 10.0566C12.7093 9.99691 12.7789 9.93722 12.8468 9.87445C12.87 9.8523 12.8914 9.8443 12.9226 9.85476C13.1151 9.9163 13.3131 9.95876 13.5098 10.0043C13.6351 10.0332 13.7598 10.0646 13.893 10.1114C13.7891 10.1421 13.7115 10.1994 13.6235 10.2357C13.6065 10.2437 13.588 10.2479 13.5692 10.2481C13.5505 10.2483 13.5319 10.2445 13.5147 10.2369C13.4169 10.1969 13.3265 10.2221 13.2727 10.3058C13.2386 10.3585 13.1993 10.4076 13.1554 10.4523C13.1226 10.4832 13.1028 10.5255 13.1001 10.5706C13.0974 10.6157 13.1119 10.6601 13.1407 10.6948C13.1609 10.5372 13.2367 10.5354 13.3656 10.5311C13.3846 10.5305 13.4029 10.536 13.4224 10.5385C13.5667 10.5594 13.6724 10.5028 13.7329 10.3692C13.7451 10.3415 13.7628 10.3292 13.7897 10.3194C13.8789 10.2911 13.9682 10.2634 14.0549 10.2301C14.1051 10.2111 14.1448 10.208 14.1924 10.2431C14.2352 10.2738 14.2872 10.2917 14.3354 10.3132C14.4094 10.3458 14.4839 10.3729 14.553 10.4154C14.5673 10.4225 14.5797 10.433 14.5892 10.446C14.5986 10.4589 14.6049 10.474 14.6074 10.4898C14.6288 10.6055 14.6923 10.6597 14.8084 10.6763C14.8559 10.683 14.9042 10.6795 14.9502 10.6658C14.9906 10.6548 15.0156 10.6695 15.0419 10.6929C15.0981 10.7421 15.1281 10.808 15.1604 10.8726C15.1666 10.8449 15.1666 10.8191 15.1666 10.792C15.1666 10.6935 15.1281 10.6043 15.0999 10.5132C15.0437 10.3354 14.9246 10.2418 14.7418 10.2726C14.6172 10.2929 14.5267 10.256 14.4332 10.1932C14.4063 10.1754 14.3727 10.1655 14.3513 10.1298C14.5402 10.1181 14.7204 10.1058 14.9013 10.0935C14.9184 10.0929 14.9343 10.0923 14.9496 10.104C15.0779 10.2098 15.2161 10.1932 15.3444 10.1157C15.4348 10.0603 15.5186 10.0486 15.6127 10.0917C15.6151 10.0929 15.6188 10.0886 15.6243 10.0855C15.6127 10.0555 15.5935 10.0291 15.5686 10.0089C15.5438 9.98874 15.5141 9.97547 15.4825 9.97045Z" fill="black"/>
<path fill-rule="evenodd" clip-rule="evenodd" d="M12.4105 3.45723C12.463 3.42906 12.5223 3.41647 12.5816 3.42092C12.6366 3.42092 12.6916 3.42584 12.7411 3.45477C12.8004 3.48861 12.8016 3.53661 12.746 3.57661C12.6702 3.63138 12.485 3.63323 12.4062 3.57969C12.3518 3.54277 12.3537 3.49169 12.4105 3.45723ZM9.51871 3.58277C9.46835 3.60845 9.41261 3.62163 9.35616 3.6212C9.29971 3.62078 9.24418 3.60675 9.19421 3.5803C9.16793 3.56738 9.14593 3.54584 9.14654 3.51384C9.14776 3.48061 9.17221 3.46338 9.19788 3.45046C9.23992 3.42992 9.28622 3.41979 9.33293 3.42092C9.41115 3.42092 9.46799 3.42461 9.51932 3.45477C9.58165 3.49169 9.58349 3.55138 9.51871 3.58277Z" fill="#E41E20"/>
</g>
<defs>
<clipPath id="clip0_4251_8848">
<rect width="22" height="16" fill="white"/>
</clipPath>
</defs>
</svg>
