<svg width="32" height="32" viewBox="0 0 32 32" fill="none" xmlns="http://www.w3.org/2000/svg">
<path d="M22.5225 28.7455H19.3782L16.2871 17.1057C15.6258 20.2373 14.1994 24.5928 12.854 27.8271C12.5626 28.5159 12.0356 28.7431 10.8194 28.7431H7.6751L2.10352 12.1151C3.31969 11.2992 4.95645 10.6641 5.93446 10.6641C6.7275 10.6641 7.12276 10.9181 7.33559 11.6314L10.5331 23.1687C11.7746 20.164 13.0161 14.9927 13.6495 10.9181H16.8471C18.195 10.9181 18.6688 11.2748 18.8816 12.0125L21.8663 23.1687C23.1078 20.037 24.3747 14.9927 25.0638 10.9181H28.0485C29.5535 10.9181 30.1895 11.5044 29.9513 12.5987C28.948 17.1839 26.9388 23.0661 24.5622 27.8295C24.2176 28.5184 23.7438 28.7455 22.5276 28.7455H22.5225Z" fill="#0169EB"/>
<path d="M10.2026 9.17536C11.9713 9.17536 13.4052 7.79296 13.4052 6.08768C13.4052 4.3824 11.9713 3 10.2026 3C8.43385 3 7 4.3824 7 6.08768C7 7.79296 8.43385 9.17536 10.2026 9.17536Z" fill="#73C8E7"/>
<path d="M21.7802 9.43317C23.549 9.43317 24.9828 8.05077 24.9828 6.34549C24.9828 4.64021 23.549 3.25781 21.7802 3.25781C20.0115 3.25781 18.5776 4.64021 18.5776 6.34549C18.5776 8.05077 20.0115 9.43317 21.7802 9.43317Z" fill="#0169EB"/>
</svg>
